<?xml version="1.0" standalone="no"?>
<!DOCTYPE svg PUBLIC "-//W3C//DTD SVG 20010904//EN"
 "http://www.w3.org/TR/2001/REC-SVG-20010904/DTD/svg10.dtd">
<svg version="1.0" xmlns="http://www.w3.org/2000/svg"
 width="1024.000000pt" height="1024.000000pt" viewBox="0 0 1024.000000 1024.000000"
 preserveAspectRatio="xMidYMid meet">

<g transform="translate(0.000000,1024.000000) scale(0.100000,-0.100000)"
fill="#0d6efd" stroke="none">
<path d="M1599 9324 c-18 -22 -24 -186 -10 -256 7 -30 27 -87 46 -127 103
-214 260 -354 520 -461 189 -79 253 -118 345 -210 154 -152 182 -233 230 -645
12 -99 33 -234 46 -299 114 -540 482 -1005 985 -1245 230 -110 478 -171 702
-175 l88 -1 46 50 c205 223 287 291 436 360 188 87 420 104 593 45 95 -33 133#
-89 84 -123 -18 -13 -30 -12 -93 5 -199 53 -433 24 -600 -74 -119 -70 -192
-142 -427 -422 -41 -50 -112 -127 -158 -172 -45 -45 -82 -90 -82 -100 0 -33
33 -54 129 -84 131 -40 243 -54 370 -47 125 7 199 25 299 72 133 63 203 129
335 316 45 65 106 118 175 153 18 10 110 37 204 61 185 49 308 101 416 177 34
24 142 119 240 209 343 320 500 428 802 552 183 76 479 147 610 147 57 0 61 8
48 101 -23 174 -162 317 -400 414 -272 110 -557 141 -838 89 -304 -56 -507
-147 -886 -399 -320 -213 -441 -280 -614 -343 -222 -81 -399 -112 -656 -113
-210 -2 -316 11 -507 61 -608 156 -1070 564 -1138 1003 -15 97 1 185 52 286
45 88 97 148 189 217 62 46 92 62 320 165 161 72 251 136 334 237 109 134 179
308 179 442 0 69 -18 150 -33 150 -5 0 -22 -12 -37 -26 -56 -52 -114 -85 -179
-101 -62 -15 -77 -15 -218 1 -172 19 -241 20 -317 6 -70 -13 -181 -66 -246
-118 -51 -41 -130 -141 -162 -207 l-16 -34 -45 75 c-82 139 -229 248 -377 279
-87 19 -214 19 -328 0 -112 -19 -175 -19 -243 -1 -59 16 -85 31 -153 87 -42
35 -48 37 -60 23z m773 -215 c97 -20 194 -74 272 -152 82 -81 123 -148 160
-259 33 -99 34 -133 1 -154 -40 -26 -65 -2 -94 87 -36 114 -60 157 -123 224
-123 132 -272 174 -510 144 -77 -10 -91 -10 -113 5 -30 20 -33 56 -6 80 34 31
307 47 413 25z m3881 -2469 c111 -76 116 -226 11 -306 -27 -21 -50 -29 -93
-32 -70 -5 -121 17 -164 71 -56 68 -46 190 20 249 58 53 163 61 226 18z"/>
<path d="M6103 6545 c-41 -29 -38 -98 6 -132 28 -22 71 -15 102 16 36 36 37
60 3 100 -29 35 -75 41 -111 16z"/>
<path d="M7005 8967 c-109 -37 -186 -104 -233 -205 -32 -68 -41 -187 -22 -267
l12 -52 72 72 c53 54 84 76 120 88 93 31 196 18 272 -33 41 -29 100 -97 91
-106 -2 -3 -20 4 -38 15 -51 30 -156 54 -206 47 -98 -13 -173 -78 -173 -150 0
-99 85 -139 211 -99 39 13 88 17 174 17 110 0 127 -3 209 -33 48 -18 90 -30
93 -28 2 3 -7 27 -20 54 -35 69 -55 143 -68 247 -26 226 -97 350 -238 414 -67
31 -192 40 -256 19z"/>
<path d="M6310 8937 c-85 -43 -51 -177 45 -177 27 0 44 8 66 29 77 78 -12 198
-111 148z"/>
<path d="M5774 8785 c-48 -21 -92 -78 -99 -129 -12 -80 24 -149 98 -188 45
-24 57 -25 357 -17 115 2 160 -1 220 -15 117 -29 136 -30 143 -12 7 18 14 13
-158 111 -66 37 -174 104 -239 148 -165 110 -245 136 -322 102z"/>
<path d="M5324 8740 c-50 -20 -76 -98 -50 -148 22 -42 53 -62 99 -62 53 0 107
52 107 102 0 84 -80 139 -156 108z"/>
<path d="M7693 8566 c-84 -71 -63 -213 53 -361 106 -135 140 -209 168 -356 22
-117 21 -122 -17 -57 -128 226 -341 370 -523 355 -115 -9 -197 -76 -197 -161
0 -87 47 -121 208 -150 206 -38 322 -94 448 -215 33 -31 77 -82 99 -114 48
-71 77 -87 113 -63 28 19 27 13 26 156 -4 271 -77 679 -152 841 -61 132 -156
184 -226 125z m134 -220 c33 -81 26 -103 -14 -41 -17 28 -35 63 -39 78 -6 25
-4 28 12 25 11 -2 27 -25 41 -62z m-325 -346 c48 -18 134 -77 125 -86 -2 -2
-34 5 -71 16 -38 11 -95 22 -127 26 -65 7 -89 25 -69 49 17 21 79 19 142 -5z"/>
<path d="M4718 8464 c-34 -18 -48 -43 -48 -84 0 -44 16 -69 55 -86 67 -28 135
19 135 92 0 36 -16 61 -50 79 -36 19 -57 18 -92 -1z"/>
<path d="M6115 8318 c-211 -39 -416 -161 -474 -282 -37 -75 -25 -159 29 -204
18 -15 103 -10 124 7 8 7 33 45 55 84 54 100 146 186 253 237 110 53 211 72
360 68 116 -3 150 5 133 31 -33 54 -321 89 -480 59z"/>
<path d="M4049 8294 c-16 -18 -24 -37 -24 -64 0 -114 163 -123 181 -9 5 28 1
41 -21 67 -22 27 -34 32 -69 32 -33 0 -48 -6 -67 -26z"/>
<path d="M3444 8169 c-141 -40 -100 -252 45 -236 54 6 92 34 110 81 12 32 12
41 -4 81 -23 62 -85 92 -151 74z"/>
<path d="M5118 8124 c-52 -28 -75 -117 -44 -172 54 -99 227 -70 237 39 5 60
-2 82 -37 115 -30 29 -43 34 -82 34 -26 -1 -59 -7 -74 -16z"/>
<path d="M2123 8114 c-73 -37 -83 -143 -19 -201 116 -106 279 69 168 180 -37
36 -101 46 -149 21z"/>
<path d="M8355 8031 c-64 -27 -82 -114 -32 -157 37 -31 78 -31 116 2 51 42 41
118 -19 149 -32 17 -37 17 -65 6z"/>
<path d="M6503 7980 c-190 -27 -411 -127 -543 -246 -89 -81 -200 -248 -200
-302 0 -53 15 -72 59 -72 37 0 40 3 90 79 61 94 183 212 285 276 169 105 348
155 558 155 102 0 130 3 142 16 32 32 9 64 -59 83 -54 15 -255 22 -332 11z"/>
<path d="M4185 7886 c-250 -78 -334 -410 -157 -617 18 -21 37 -39 41 -39 5 0
11 29 13 64 11 136 80 211 192 211 43 -1 70 -6 90 -20 l29 -19 -38 -8 c-74
-16 -136 -70 -155 -138 -21 -72 37 -150 111 -150 35 0 48 8 108 64 89 84 128
96 308 96 111 0 133 2 133 15 0 8 -12 21 -27 29 -31 16 -101 87 -125 126 -9
14 -34 69 -56 123 -62 152 -135 229 -247 263 -58 17 -165 17 -220 0z"/>
<path d="M3443 7823 c-12 -2 -36 -20 -53 -39 -51 -58 -36 -155 30 -189 37 -19
60 -19 109 1 30 12 45 26 61 59 32 65 10 129 -55 159 -33 16 -49 17 -92 9z"/>
<path d="M5119 7753 c-115 -71 -44 -251 89 -227 56 10 102 64 102 117 0 50
-30 104 -66 117 -38 15 -96 12 -125 -7z"/>
<path d="M2140 7618 c-64 -33 -90 -82 -90 -174 0 -137 48 -240 188 -402 81
-93 124 -171 142 -255 10 -51 14 -58 33 -55 48 7 85 154 94 363 4 120 2 152
-16 227 -27 116 -68 195 -129 250 -78 69 -147 84 -222 46z m237 -369 c21 -39
14 -149 -9 -149 -15 0 -48 82 -48 121 0 59 33 76 57 28z"/>
<path d="M8355 7581 c-47 -21 -65 -53 -65 -115 0 -116 158 -155 220 -54 24 39
25 66 6 113 -26 62 -95 87 -161 56z"/>
<path d="M4646 7190 c-136 -43 -187 -163 -101 -239 45 -39 103 -47 230 -33
197 22 445 94 609 177 102 51 130 75 110 95 -8 8 -29 5 -74 -10 -92 -31 -228
-30 -398 4 -161 32 -289 34 -376 6z m308 -110 c10 -10 -33 -22 -158 -45 -62
-12 -91 -14 -99 -6 -18 18 21 49 77 60 55 10 165 5 180 -9z"/>
<path d="M8362 7046 c-88 -29 -149 -98 -211 -245 -40 -95 -86 -253 -105 -364
-23 -128 -41 -441 -30 -502 9 -49 10 -50 44 -50 34 0 36 3 88 99 55 104 74
130 188 266 176 210 248 330 284 475 29 114 13 204 -48 268 -54 57 -134 77
-210 53z m-84 -548 c7 -7 12 -22 12 -35 0 -47 -103 -219 -123 -206 -15 9 -1
115 22 169 34 77 62 99 89 72z"/>
<path d="M2631 6901 c-15 -15 -21 -34 -21 -64 0 -92 105 -406 175 -522 20 -32
34 -59 32 -61 -4 -4 -190 147 -251 204 -98 92 -229 182 -326 225 -207 92 -370
33 -370 -133 0 -103 90 -214 223 -275 95 -43 141 -53 318 -71 180 -18 277 -41
387 -95 98 -48 140 -83 205 -176 253 -361 381 -530 529 -704 27 -30 48 -59 48
-62 0 -4 -26 6 -57 21 -32 16 -114 51 -183 78 -117 46 -129 54 -205 126 -93
89 -136 154 -182 281 -45 125 -77 186 -118 229 -125 128 -310 76 -309 -87 0
-32 8 -66 24 -95 44 -86 197 -213 288 -241 28 -8 55 -29 91 -69 l51 -58 -210
-1 c-285 -1 -489 -33 -525 -83 -35 -51 -5 -128 49 -128 14 0 71 11 127 25 368
89 749 40 1119 -143 l135 -67 -788 -5 -789 -5 -19 -24 c-26 -32 -24 -67 6 -96
l24 -25 2640 0 c1914 0 2647 3 2664 11 14 6 30 22 37 35 17 30 -1 77 -36 93
-17 7 -125 11 -327 12 l-302 0 55 25 c148 69 517 167 710 189 161 19 263 19
375 -1 165 -30 161 -30 196 5 25 26 30 37 24 59 -16 65 -57 80 -248 92 -84 5
-161 10 -171 10 -14 0 -9 7 20 29 21 16 61 52 89 80 31 32 58 51 72 51 31 0
489 77 538 91 89 25 192 89 264 165 84 87 121 156 128 235 14 146 -116 240
-269 195 -114 -33 -199 -109 -413 -370 -64 -79 -178 -186 -197 -186 -2 0 -2
15 0 34 3 28 -1 37 -22 51 -36 24 -58 13 -114 -58 -100 -128 -244 -253 -364
-317 -50 -27 -390 -146 -371 -130 5 4 37 29 73 57 70 56 184 170 243 244 28
36 45 48 74 53 169 28 392 255 410 418 21 182 -156 250 -293 113 -39 -39 -68
-86 -132 -215 -89 -180 -160 -282 -292 -423 -159 -168 -406 -354 -598 -449
l-85 -43 -146 -3 -145 -4 104 69 c394 260 819 757 1074 1256 118 231 255 567
232 567 -22 0 -165 -52 -174 -63 -5 -7 -33 -68 -62 -137 -210 -502 -501 -927
-872 -1270 -200 -186 -417 -340 -554 -395 -57 -22 -244 -42 -244 -26 0 4 39
30 88 58 193 113 352 240 576 461 335 330 561 636 748 1012 42 85 80 165 83
178 6 21 5 21 -22 11 -15 -5 -66 -31 -111 -57 -82 -46 -85 -49 -123 -125 -157
-310 -373 -598 -670 -896 -298 -297 -590 -512 -821 -601 -97 -38 -191 -47
-488 -49 -325 -2 -463 20 -705 112 -49 19 -96 32 -102 30 -28 -11 -9 -40 52
-82 36 -24 65 -45 65 -47 0 -2 -61 -4 -136 -4 l-137 0 -157 158 c-198 199
-335 367 -595 732 -282 397 -409 649 -490 972 -18 71 -34 92 -77 103 -19 5
-32 1 -47 -14z m-167 -541 c100 -38 91 -46 -56 -54 -128 -7 -133 -7 -150 14
-10 12 -15 26 -12 32 20 33 139 37 218 8z m5154 -598 c2 -15 -8 -29 -39 -51
-47 -35 -59 -38 -59 -16 0 20 70 97 84 92 6 -2 12 -13 14 -25z m-4830 -46 c34
-51 49 -92 38 -103 -7 -7 -102 81 -117 109 -5 9 -6 24 -3 33 12 29 48 12 82
-39z m5701 33 c37 -13 41 -42 9 -63 -30 -18 -258 -11 -258 9 0 17 29 40 65 53
40 14 144 15 184 1z"/>
<path d="M7810 6881 l-34 -6 -38 -138 c-21 -75 -60 -198 -88 -271 -55 -147
-60 -176 -32 -176 41 0 211 302 276 488 20 57 36 106 36 108 0 6 -78 3 -120
-5z"/>
<path d="M3113 6354 c-7 -19 5 -42 70 -129 217 -293 648 -538 1029 -586 l81
-10 64 63 c35 34 63 65 63 69 0 3 -35 9 -77 12 -319 26 -671 155 -934 343 -45
32 -126 103 -180 157 -53 53 -100 97 -103 97 -4 0 -9 -7 -13 -16z"/>
<path d="M6471 6114 c-99 -90 -257 -200 -331 -232 -28 -12 -81 -54 -138 -111
-202 -198 -463 -382 -648 -458 -311 -127 -709 -136 -1002 -23 -89 34 -142 71
-142 100 0 24 -12 32 -115 70 -113 41 -326 147 -427 212 -43 27 -82 47 -88 43
-22 -13 -8 -43 51 -108 202 -224 602 -448 910 -511 336 -68 697 -19 989 136
227 120 423 272 666 513 164 163 235 245 348 403 21 28 34 52 29 51 -4 0 -50
-38 -102 -85z"/>
<path d="M1730 6041 c-135 -48 -187 -188 -121 -328 56 -118 202 -231 340 -263
77 -18 329 -7 445 20 171 39 205 77 103 116 -86 34 -135 75 -248 211 -92 112
-167 181 -227 213 -13 6 -26 9 -29 6 -8 -8 47 -120 110 -224 32 -51 57 -95 57
-98 0 -2 -15 3 -32 12 -96 49 -166 138 -206 261 -13 39 -30 74 -37 76 -42 17
-104 16 -155 -2z"/>
<path d="M5738 5781 c-83 -33 -117 -61 -170 -140 -28 -42 -60 -86 -71 -98 -11
-13 -17 -23 -12 -23 9 0 79 58 195 161 41 37 89 79 105 93 36 30 20 33 -47 7z"/>
<path d="M8497 5310 c-79 -62 -8 -198 83 -160 40 17 60 46 60 90 -1 76 -83
117 -143 70z"/>
<path d="M1875 5238 c-65 -56 -9 -171 73 -152 36 9 53 23 67 58 35 84 -70 154
-140 94z"/>
<path d="M1728 4930 c-25 -26 -29 -36 -24 -62 9 -47 33 -68 77 -68 64 0 102
56 74 110 -29 56 -82 64 -127 20z"/>
<path d="M7669 4937 c-20 -15 -39 -51 -39 -72 0 -9 11 -27 25 -40 l24 -25 471
0 471 0 24 25 c33 32 31 60 -4 96 l-29 29 -464 0 c-348 -1 -467 -4 -479 -13z"/>
<path d="M2531 3695 c-116 -33 -189 -91 -251 -200 -15 -27 -74 -162 -130 -300
-56 -137 -119 -290 -140 -340 -21 -49 -106 -259 -190 -465 -84 -206 -185 -455
-226 -552 -88 -214 -104 -265 -104 -337 0 -74 14 -119 53 -177 113 -169 348
-189 498 -43 50 49 80 103 190 351 l34 77 360 1 360 0 17 -38 c166 -361 199
-410 305 -459 210 -97 461 55 466 282 2 72 -14 119 -134 410 -58 143 -191 465
-294 715 -103 250 -225 547 -271 660 -91 221 -133 293 -202 346 -91 69 -235
98 -341 69z m109 -894 c12 -36 17 -41 64 -52 77 -18 144 -55 208 -117 103 -98
153 -241 130 -372 -36 -199 -193 -351 -382 -366 -227 -19 -419 133 -461 365
-20 114 16 246 93 343 43 55 137 114 221 140 64 19 71 24 86 59 9 21 19 39 22
39 3 0 12 -18 19 -39z"/>
<path d="M2524 2619 c-129 -37 -229 -198 -210 -337 8 -59 61 -157 105 -193 95
-78 216 -96 321 -48 77 36 111 68 151 141 31 57 34 71 34 143 0 96 -23 152
-91 220 -74 73 -205 105 -310 74z"/>
<path d="M5140 3704 c-203 -26 -401 -101 -575 -218 -74 -49 -203 -178 -273
-271 -99 -133 -192 -341 -227 -512 -25 -118 -30 -309 -12 -428 52 -336 247
-662 507 -844 148 -104 352 -190 530 -222 92 -17 289 -14 400 5 352 61 669
270 745 491 63 185 -50 390 -232 423 -109 19 -199 -13 -310 -113 -40 -35 -92
-75 -115 -89 -72 -41 -181 -67 -288 -67 -174 1 -291 49 -410 170 -238 241
-240 619 -6 857 123 124 247 170 436 162 152 -7 246 -47 380 -162 114 -98 217
-124 339 -87 55 17 80 31 118 69 74 72 98 129 98 232 0 74 -4 93 -30 144 -98
194 -383 375 -694 441 -74 15 -314 27 -381 19z"/>
<path d="M7215 3681 c-215 -6 -221 -7 -277 -34 -32 -16 -75 -48 -99 -75 -138
-155 -112 -372 57 -488 76 -53 138 -64 355 -64 173 0 188 -1 213 -21 53 -41
51 -12 56 -819 l5 -755 29 -58 c60 -117 161 -182 286 -182 112 0 172 25 245
99 106 108 99 46 105 911 5 695 6 752 23 776 29 44 55 49 247 49 98 0 203 5
232 11 169 36 282 166 282 325 0 60 -5 81 -32 137 -39 79 -102 138 -176 166
-50 18 -87 20 -692 24 -351 2 -738 1 -859 -2z"/>
</g>
</svg>
